<?xml version="1.0" encoding="iso-8859-1"?>
<!-- Generator: Adobe Illustrator 16.0.0, SVG Export Plug-In . SVG Version: 6.00 Build 0)  -->
<!DOCTYPE svg PUBLIC "-//W3C//DTD SVG 1.1//EN" "http://www.w3.org/Graphics/SVG/1.1/DTD/svg11.dtd">
<svg version="1.1" id="Capa_1" xmlns="http://www.w3.org/2000/svg" xmlns:xlink="http://www.w3.org/1999/xlink" x="0px" y="0px"
	 width="771.506px" height="771.506px" viewBox="0 0 771.506 771.506" style="enable-background:new 0 0 771.506 771.506;"
	 xml:space="preserve">
<g>
	<g>
		<path d="M699.722,80.04c-0.361-4.001-2.284-7.598-5.411-10.135L610.016,3.32c-2.631-2.133-5.945-3.311-9.338-3.32
			c-4.528-0.013-8.763,1.989-11.612,5.49l-67.729,85.683c-2.524,3.099-3.676,6.995-3.243,10.969
			c0.431,3.974,2.392,7.533,5.521,10.018l83.783,66.559c2.631,2.088,5.941,3.244,9.326,3.254c4.447,0.012,8.644-1.9,11.512-5.245
			l67.983-85.745C698.841,87.925,700.086,84.04,699.722,80.04z M616.163,160.399L539.855,99.78l61.483-78.012l76.484,60.255
			L616.163,160.399z"/>
		<path d="M72.123,739.893c-1.397,7.812,0.931,15.575,5.735,21.841c9.551,12.454,24.469,10.34,30.297,7.948l115.044-50.173
			L92.069,616.666L72.123,739.893z M184.892,714.621L100.9,751.262c-0.804,0.287-4.269,1.394-7.817-2.18
			c-1.04-1.046-1.961-3.048-1.47-5.732l14.636-90.403L184.892,714.621z"/>
		<path d="M489.895,110.427L99.645,608.035l128.706,100.938l390.25-497.608L489.895,110.427z M548.327,181.408L431.944,332.68
			l-17.389-13.44l117.247-150.791L548.327,181.408z M590.81,214.725L224.99,681.182l-97.555-76.506l365.82-466.457l22.972,18.017
			L386.744,322.76l48.79,37.717l128.367-166.852L590.81,214.725z"/>
	</g>
</g>
<g>
</g>
<g>
</g>
<g>
</g>
<g>
</g>
<g>
</g>
<g>
</g>
<g>
</g>
<g>
</g>
<g>
</g>
<g>
</g>
<g>
</g>
<g>
</g>
<g>
</g>
<g>
</g>
<g>
</g>
</svg>
